<!-- icon666.com - MILLIONS vector ICONS FREE --><svg id="Capa_1" enable-background="new 0 0 512 512" viewBox="0 0 512 512" xmlns="http://www.w3.org/2000/svg"><path d="m497 339h-128v-166h128c8.284 0 15-6.716 15-15s-6.716-15-15-15h-128v-128c0-8.284-6.716-15-15-15s-15 6.716-15 15v128h-166v-128c0-8.284-6.716-15-15-15s-15 6.716-15 15v128h-128c-8.284 0-15 6.716-15 15s6.716 15 15 15h128v166h-128c-8.284 0-15 6.716-15 15s6.716 15 15 15h128v128c0 8.284 6.716 15 15 15s15-6.716 15-15v-128h166v128c0 8.284 6.716 15 15 15s15-6.716 15-15v-128h128c8.284 0 15-6.716 15-15s-6.716-15-15-15zm-324 0v-166h166v166z" fill="#617882"></path><path d="m60 0c-33.084 0-60 26.916-60 60s26.916 60 60 60 60-26.916 60-60-26.916-60-60-60zm0 90c-16.542 0-30-13.458-30-30s13.458-30 30-30 30 13.458 30 30-13.458 30-30 30z" fill="#72b8f2"></path><path d="m452 392c-33.084 0-60 26.916-60 60s26.916 60 60 60 60-26.916 60-60-26.916-60-60-60zm0 90c-16.542 0-30-13.458-30-30s13.458-30 30-30 30 13.458 30 30-13.458 30-30 30z" fill="#63a1e9"></path><path d="m110.606 401.394c-5.857-5.857-15.355-5.857-21.213 0l-29.393 29.393-29.394-29.394c-5.857-5.857-15.355-5.857-21.213 0s-5.858 15.355 0 21.213l29.394 29.394-29.393 29.394c-5.858 5.857-5.858 15.355 0 21.213 2.928 2.928 6.767 4.393 10.606 4.393s7.678-1.465 10.606-4.394l29.394-29.393 29.394 29.394c2.928 2.928 6.767 4.393 10.606 4.393s7.678-1.465 10.606-4.394c5.858-5.857 5.858-15.355 0-21.213l-29.393-29.393 29.394-29.394c5.857-5.857 5.857-15.355-.001-21.212z" fill="#ed6d7d"></path><path d="m256 196c-33.084 0-60 26.916-60 60s26.916 60 60 60 60-26.916 60-60-26.916-60-60-60zm0 90c-16.542 0-30-13.458-30-30s13.458-30 30-30 30 13.458 30 30-13.458 30-30 30z" fill="#72b8f2"></path><path d="m256 196v30c16.542 0 30 13.458 30 30s-13.458 30-30 30v30c33.084 0 60-26.916 60-60s-26.916-60-60-60z" fill="#63a1e9"></path><path d="m205.394 110.606c2.928 2.93 6.767 4.394 10.606 4.394s7.678-1.464 10.606-4.394l29.394-29.393 29.394 29.394c2.928 2.929 6.767 4.393 10.606 4.393s7.678-1.464 10.606-4.394c5.858-5.858 5.858-15.355 0-21.213l-29.393-29.393 29.394-29.394c5.858-5.858 5.858-15.355 0-21.213-5.857-5.858-15.355-5.858-21.213 0l-29.394 29.394-29.394-29.393c-5.857-5.858-15.355-5.858-21.213 0s-5.858 15.355 0 21.213l29.394 29.393-29.394 29.394c-5.857 5.857-5.857 15.355.001 21.212z" fill="#ed6d7d"></path><path d="m296 115c3.839 0 7.678-1.464 10.606-4.394 5.858-5.858 5.858-15.355 0-21.213l-29.393-29.393 29.394-29.394c5.858-5.858 5.858-15.355 0-21.213-5.857-5.858-15.355-5.858-21.213 0l-29.394 29.394v42.426l29.394 29.394c2.928 2.929 6.767 4.393 10.606 4.393z" fill="#d44854"></path><path d="m173 339v-166h83v-30h-83v-128c0-8.284-6.716-15-15-15s-15 6.716-15 15v128h-128c-8.284 0-15 6.716-15 15s6.716 15 15 15h128v166h-128c-8.284 0-15 6.716-15 15s6.716 15 15 15h128v128c0 8.284 6.716 15 15 15s15-6.716 15-15v-128h83v-30z" fill="#5a5555"></path><path d="m497 339h-128v-166h128c8.284 0 15-6.716 15-15s-6.716-15-15-15h-128v-128c0-8.284-6.716-15-15-15s-15 6.716-15 15v128h-83v30h83v166h-83v30h83v128c0 8.284 6.716 15 15 15s15-6.716 15-15v-128h128c8.284 0 15-6.716 15-15s-6.716-15-15-15z" fill="#453f3f"></path></svg>